<mxfile host="app.diagrams.net" agent="Mozilla/5.0 (Windows NT 10.0; Win64; x64) AppleWebKit/537.36 (KHTML, like Gecko) Chrome/138.0.0.0 Safari/537.36" version="28.0.7">
  <diagram name="Page-1" id="MZsv8QqthjIFQ7dekh1-">
    <mxGraphModel dx="1042" dy="562" grid="1" gridSize="10" guides="1" tooltips="1" connect="1" arrows="1" fold="1" page="1" pageScale="1" pageWidth="850" pageHeight="1100" math="0" shadow="0">
      <root>
        <mxCell id="0" />
        <mxCell id="1" parent="0" />
        <mxCell id="HJXCcO_lv6UoFXGV9zWp-10" value="" style="edgeStyle=orthogonalEdgeStyle;rounded=0;orthogonalLoop=1;jettySize=auto;html=1;" edge="1" parent="1" source="HJXCcO_lv6UoFXGV9zWp-1" target="HJXCcO_lv6UoFXGV9zWp-2">
          <mxGeometry relative="1" as="geometry" />
        </mxCell>
        <mxCell id="HJXCcO_lv6UoFXGV9zWp-1" value="Plan" style="ellipse;whiteSpace=wrap;html=1;" vertex="1" parent="1">
          <mxGeometry x="320" y="50" width="120" height="80" as="geometry" />
        </mxCell>
        <mxCell id="HJXCcO_lv6UoFXGV9zWp-12" value="" style="edgeStyle=orthogonalEdgeStyle;rounded=0;orthogonalLoop=1;jettySize=auto;html=1;" edge="1" parent="1" source="HJXCcO_lv6UoFXGV9zWp-2" target="HJXCcO_lv6UoFXGV9zWp-3">
          <mxGeometry relative="1" as="geometry">
            <Array as="points">
              <mxPoint x="380" y="260" />
              <mxPoint x="380" y="260" />
            </Array>
          </mxGeometry>
        </mxCell>
        <mxCell id="HJXCcO_lv6UoFXGV9zWp-2" value="Develop" style="ellipse;whiteSpace=wrap;html=1;" vertex="1" parent="1">
          <mxGeometry x="320" y="160" width="120" height="80" as="geometry" />
        </mxCell>
        <mxCell id="HJXCcO_lv6UoFXGV9zWp-13" value="" style="edgeStyle=orthogonalEdgeStyle;rounded=0;orthogonalLoop=1;jettySize=auto;html=1;" edge="1" parent="1" source="HJXCcO_lv6UoFXGV9zWp-3" target="HJXCcO_lv6UoFXGV9zWp-4">
          <mxGeometry relative="1" as="geometry" />
        </mxCell>
        <mxCell id="HJXCcO_lv6UoFXGV9zWp-3" value="Build" style="ellipse;whiteSpace=wrap;html=1;" vertex="1" parent="1">
          <mxGeometry x="320" y="270" width="120" height="80" as="geometry" />
        </mxCell>
        <mxCell id="HJXCcO_lv6UoFXGV9zWp-14" value="" style="edgeStyle=orthogonalEdgeStyle;rounded=0;orthogonalLoop=1;jettySize=auto;html=1;" edge="1" parent="1" source="HJXCcO_lv6UoFXGV9zWp-4" target="HJXCcO_lv6UoFXGV9zWp-6">
          <mxGeometry relative="1" as="geometry" />
        </mxCell>
        <mxCell id="HJXCcO_lv6UoFXGV9zWp-4" value="Test" style="ellipse;whiteSpace=wrap;html=1;" vertex="1" parent="1">
          <mxGeometry x="320" y="380" width="120" height="80" as="geometry" />
        </mxCell>
        <mxCell id="HJXCcO_lv6UoFXGV9zWp-25" value="" style="edgeStyle=orthogonalEdgeStyle;rounded=0;orthogonalLoop=1;jettySize=auto;html=1;" edge="1" parent="1" source="HJXCcO_lv6UoFXGV9zWp-6" target="HJXCcO_lv6UoFXGV9zWp-7">
          <mxGeometry relative="1" as="geometry" />
        </mxCell>
        <mxCell id="HJXCcO_lv6UoFXGV9zWp-6" value="Release" style="ellipse;whiteSpace=wrap;html=1;" vertex="1" parent="1">
          <mxGeometry x="320" y="490" width="120" height="80" as="geometry" />
        </mxCell>
        <mxCell id="HJXCcO_lv6UoFXGV9zWp-16" value="" style="edgeStyle=orthogonalEdgeStyle;rounded=0;orthogonalLoop=1;jettySize=auto;html=1;" edge="1" parent="1" source="HJXCcO_lv6UoFXGV9zWp-7" target="HJXCcO_lv6UoFXGV9zWp-8">
          <mxGeometry relative="1" as="geometry" />
        </mxCell>
        <mxCell id="HJXCcO_lv6UoFXGV9zWp-7" value="Deploy" style="ellipse;whiteSpace=wrap;html=1;" vertex="1" parent="1">
          <mxGeometry x="315" y="610" width="130" height="80" as="geometry" />
        </mxCell>
        <mxCell id="HJXCcO_lv6UoFXGV9zWp-17" value="" style="edgeStyle=orthogonalEdgeStyle;rounded=0;orthogonalLoop=1;jettySize=auto;html=1;" edge="1" parent="1" source="HJXCcO_lv6UoFXGV9zWp-8" target="HJXCcO_lv6UoFXGV9zWp-9">
          <mxGeometry relative="1" as="geometry" />
        </mxCell>
        <mxCell id="HJXCcO_lv6UoFXGV9zWp-8" value="Operate" style="ellipse;whiteSpace=wrap;html=1;" vertex="1" parent="1">
          <mxGeometry x="315" y="730" width="130" height="80" as="geometry" />
        </mxCell>
        <mxCell id="HJXCcO_lv6UoFXGV9zWp-9" value="Monitor" style="ellipse;whiteSpace=wrap;html=1;" vertex="1" parent="1">
          <mxGeometry x="315" y="850" width="130" height="80" as="geometry" />
        </mxCell>
      </root>
    </mxGraphModel>
  </diagram>
</mxfile>
